# xmcd CD database file generated by OrangeCD 4.2
#
# Track frame offsets:
#	182
#	20845
#	41330
#	62172
#	66302
#	85952
#	102182
#	107937
#	124265
#	144112
#	158147
#
# Disc length: 2338 seconds
#
# Revision: 0
# Processed by: cddbd v1.4PL0 Copyright (c) Steve Scherf et al.
# Submitted via: OrangeCD 4.2
#
DISCID=9609200b
DTITLE=Groovegrass Boyz - Groovegrass 101
DYEAR=1998
DGENRE=Bluegrass
TTITLE0=Cypress Grove
TTITLE1=Howdy
TTITLE2=Walkin' After Midnight
TTITLE3=Let It Rain
TTITLE4=Deep River Blues
TTITLE5=Little Cabin On The Hill
TTITLE6=Stuck Like Glue
TTITLE7=Salty Dog Blues
TTITLE8=Wabash Cannonball
TTITLE9=Blue Moon Of Kentucky
TTITLE10=Stand By Me
EXTD=
EXTT0=
EXTT1=
EXTT2=
EXTT3=
EXTT4=
EXTT5=
EXTT6=
EXTT7=
EXTT8=
EXTT9=
EXTT10=
PLAYORDER=
